Output #0, mpeg, to '02.mpg':
    Stream #0:0: Video: mpeg1video, yuv420p, 640x480, q=2-31, 400 kb/s, 25 tbn
[mpeg @ 0xaaab01839b40] VBV buffer size not set, using default size of 230KB
If you want the mpeg file to be compliant to some specification
Like DVD, VCD or others, make sure you set the correct buffer size
pts:0 pts_time:0 dts:-3600 dts_time:-0.04 duration:0 duration_time:0 stream_index:0
[mpeg @ 0xaaab01839b40] buffer underflow st=0 bufi=11429 size=26337
[mpeg @ 0xaaab01839b40] buffer underflow st=0 bufi=13470 size=26337
[mpeg @ 0xaaab01839b40] buffer underflow st=0 bufi=15511 size=26337
[mpeg @ 0xaaab01839b40] buffer underflow st=0 bufi=17552 size=26337
[mpeg @ 0xaaab01839b40] buffer underflow st=0 bufi=19593 size=26337
[mpeg @ 0xaaab01839b40] buffer underflow st=0 bufi=21634 size=26337
[mpeg @ 0xaaab01839b40] buffer underflow st=0 bufi=23675 size=26337
[mpeg @ 0xaaab01839b40] buffer underflow st=0 bufi=25716 size=26337
pts:3600 pts_time:0.04 dts:0 dts_time:0 duration:0 duration_time:0 stream_index:0
[mpeg @ 0xaaab01839b40] buffer underflow st=0 bufi=1411 size=9718
[mpeg @ 0xaaab01839b40] buffer underflow st=0 bufi=3452 size=9718
[mpeg @ 0xaaab01839b40] buffer underflow st=0 bufi=5493 size=9718
[mpeg @ 0xaaab01839b40] buffer underflow st=0 bufi=7534 size=9718
[mpeg @ 0xaaab01839b40] buffer underflow st=0 bufi=9575 size=9718
pts:7200 pts_time:0.08 dts:3600 dts_time:0.04 duration:0 duration_time:0 stream_index:0
[mpeg @ 0xaaab01839b40] buffer underflow st=0 bufi=1889 size=21156
[mpeg @ 0xaaab01839b40] buffer underflow st=0 bufi=3930 size=21156
[mpeg @ 0xaaab01839b40] buffer underflow st=0 bufi=5971 size=21156
[mpeg @ 0xaaab01839b40] buffer underflow st=0 bufi=8012 size=21156
[mpeg @ 0xaaab01839b40] buffer underflow st=0 bufi=10053 size=21156
[mpeg @ 0xaaab01839b40] buffer underflow st=0 bufi=12094 size=21156
[mpeg @ 0xaaab01839b40] buffer underflow st=0 bufi=14135 size=21156
[mpeg @ 0xaaab01839b40] buffer underflow st=0 bufi=16176 size=21156
[mpeg @ 0xaaab01839b40] buffer underflow st=0 bufi=18217 size=21156
[mpeg @ 0xaaab01839b40] buffer underflow st=0 bufi=20258 size=21156
pts:10800 pts_time:0.12 dts:7200 dts_time:0.08 duration:0 duration_time:0 stream_index:0
[mpeg @ 0xaaab01839b40] buffer underflow st=0 bufi=1134 size=1407
pts:14400 pts_time:0.16 dts:10800 dts_time:0.12 duration:0 duration_time:0 stream_index:0
pts:18000 pts_time:0.2 dts:14400 dts_time:0.16 duration:0 duration_time:0 stream_index:0
pts:21600 pts_time:0.24 dts:18000 dts_time:0.2 duration:0 duration_time:0 stream_index:0
[mpeg @ 0xaaab01839b40] buffer underflow st=0 bufi=947 size=1501
pts:25200 pts_time:0.28 dts:21600 dts_time:0.24 duration:0 duration_time:0 stream_index:0
pts:28800 pts_time:0.32 dts:25200 dts_time:0.28 duration:0 duration_time:0 stream_index:0
pts:32400 pts_time:0.36 dts:28800 dts_time:0.32 duration:0 duration_time:0 stream_index:0
pts:36000 pts_time:0.4 dts:32400 dts_time:0.36 duration:0 duration_time:0 stream_index:0
pts:39600 pts_time:0.44 dts:36000 dts_time:0.4 duration:0 duration_time:0 stream_index:0
[mpeg @ 0xaaab01839b40] buffer underflow st=0 bufi=527 size=15009
[mpeg @ 0xaaab01839b40] buffer underflow st=0 bufi=2568 size=15009
[mpeg @ 0xaaab01839b40] buffer underflow st=0 bufi=4609 size=15009
[mpeg @ 0xaaab01839b40] buffer underflow st=0 bufi=6650 size=15009
[mpeg @ 0xaaab01839b40] buffer underflow st=0 bufi=8691 size=15009
[mpeg @ 0xaaab01839b40] buffer underflow st=0 bufi=10732 size=15009
[mpeg @ 0xaaab01839b40] buffer underflow st=0 bufi=12773 size=15009
[mpeg @ 0xaaab01839b40] buffer underflow st=0 bufi=14814 size=15009
pts:43200 pts_time:0.48 dts:39600 dts_time:0.44 duration:0 duration_time:0 stream_index:0
[mpeg @ 0xaaab01839b40] buffer underflow st=0 bufi=1837 size=8169
[mpeg @ 0xaaab01839b40] buffer underflow st=0 bufi=3878 size=8169
[mpeg @ 0xaaab01839b40] buffer underflow st=0 bufi=5919 size=8169
[mpeg @ 0xaaab01839b40] buffer underflow st=0 bufi=7960 size=8169
pts:46800 pts_time:0.52 dts:43200 dts_time:0.48 duration:0 duration_time:0 stream_index:0
pts:50400 pts_time:0.56 dts:46800 dts_time:0.52 duration:0 duration_time:0 stream_index:0
pts:54000 pts_time:0.6 dts:50400 dts_time:0.56 duration:0 duration_time:0 stream_index:0
pts:57600 pts_time:0.64 dts:54000 dts_time:0.6 duration:0 duration_time:0 stream_index:0
[mpeg @ 0xaaab01839b40] buffer underflow st=0 bufi=170 size=517
pts:61200 pts_time:0.68 dts:57600 dts_time:0.64 duration:0 duration_time:0 stream_index:0
[mpeg @ 0xaaab01839b40] buffer underflow st=0 bufi=1673 size=11935
[mpeg @ 0xaaab01839b40] buffer underflow st=0 bufi=3714 size=11935
[mpeg @ 0xaaab01839b40] buffer underflow st=0 bufi=5755 size=11935
[mpeg @ 0xaaab01839b40] buffer underflow st=0 bufi=7796 size=11935
[mpeg @ 0xaaab01839b40] buffer underflow st=0 bufi=9837 size=11935
[mpeg @ 0xaaab01839b40] buffer underflow st=0 bufi=11878 size=11935
pts:64800 pts_time:0.72 dts:61200 dts_time:0.68 duration:0 duration_time:0 stream_index:0
pts:68400 pts_time:0.76 dts:64800 dts_time:0.72 duration:0 duration_time:0 stream_index:0
[mpeg @ 0xaaab01839b40] buffer underflow st=0 bufi=873 size=8197
[mpeg @ 0xaaab01839b40] buffer underflow st=0 bufi=2914 size=8197
[mpeg @ 0xaaab01839b40] buffer underflow st=0 bufi=4955 size=8197
[mpeg @ 0xaaab01839b40] buffer underflow st=0 bufi=6996 size=8197
pts:72000 pts_time:0.8 dts:68400 dts_time:0.76 duration:0 duration_time:0 stream_index:0
[mpeg @ 0xaaab01839b40] buffer underflow st=0 bufi=831 size=1146
pts:75600 pts_time:0.84 dts:72000 dts_time:0.8 duration:0 duration_time:0 stream_index:0
pts:79200 pts_time:0.88 dts:75600 dts_time:0.84 duration:0 duration_time:0 stream_index:0
pts:82800 pts_time:0.92 dts:79200 dts_time:0.88 duration:0 duration_time:0 stream_index:0
[mpeg @ 0xaaab01839b40] buffer underflow st=0 bufi=912 size=19825
[mpeg @ 0xaaab01839b40] buffer underflow st=0 bufi=2953 size=19825
[mpeg @ 0xaaab01839b40] buffer underflow st=0 bufi=4994 size=19825
[mpeg @ 0xaaab01839b40] buffer underflow st=0 bufi=7035 size=19825
[mpeg @ 0xaaab01839b40] buffer underflow st=0 bufi=9076 size=19825
[mpeg @ 0xaaab01839b40] buffer underflow st=0 bufi=11117 size=19825
[mpeg @ 0xaaab01839b40] buffer underflow st=0 bufi=13158 size=19825
[mpeg @ 0xaaab01839b40] buffer underflow st=0 bufi=15199 size=19825
[mpeg @ 0xaaab01839b40] buffer underflow st=0 bufi=17240 size=19825
[mpeg @ 0xaaab01839b40] buffer underflow st=0 bufi=19281 size=19825
pts:86400 pts_time:0.96 dts:82800 dts_time:0.92 duration:0 duration_time:0 stream_index:0
[mpeg @ 0xaaab01839b40] buffer underflow st=0 bufi=1488 size=3232
pts:90000 pts_time:1 dts:86400 dts_time:0.96 duration:0 duration_time:0 stream_index:0
[mpeg @ 0xaaab01839b40] buffer underflow st=0 bufi=288 size=694
pts:93600 pts_time:1.04 dts:90000 dts_time:1 duration:0 duration_time:0 stream_index:0
pts:97200 pts_time:1.08 dts:93600 dts_time:1.04 duration:0 duration_time:0 stream_index:0
[mpeg @ 0xaaab01839b40] buffer underflow st=0 bufi=1095 size=2906
pts:100800 pts_time:1.12 dts:97200 dts_time:1.08 duration:0 duration_time:0 stream_index:0
[mpeg @ 0xaaab01839b40] buffer underflow st=0 bufi=221 size=1173
pts:104400 pts_time:1.16 dts:100800 dts_time:1.12 duration:0 duration_time:0 stream_index:0
[mpeg @ 0xaaab01839b40] buffer underflow st=0 bufi=1080 size=2517
pts:108000 pts_time:1.2 dts:104400 dts_time:1.16 duration:0 duration_time:0 stream_index:0
[mpeg @ 0xaaab01839b40] buffer underflow st=0 bufi=595 size=1245
pts:111600 pts_time:1.24 dts:108000 dts_time:1.2 duration:0 duration_time:0 stream_index:0
[mpeg @ 0xaaab01839b40] buffer underflow st=0 bufi=1382 size=3854
[mpeg @ 0xaaab01839b40] buffer underflow st=0 bufi=3423 size=3854
pts:115200 pts_time:1.28 dts:111600 dts_time:1.24 duration:0 duration_time:0 stream_index:0
[mpeg @ 0xaaab01839b40] buffer underflow st=0 bufi=1601 size=4660
[mpeg @ 0xaaab01839b40] buffer underflow st=0 bufi=3642 size=4660
pts:118800 pts_time:1.32 dts:115200 dts_time:1.28 duration:0 duration_time:0 stream_index:0
pts:122400 pts_time:1.36 dts:118800 dts_time:1.32 duration:0 duration_time:0 stream_index:0
[mpeg @ 0xaaab01839b40] buffer underflow st=0 bufi=406 size=1478
pts:126000 pts_time:1.4 dts:122400 dts_time:1.36 duration:0 duration_time:0 stream_index:0
[mpeg @ 0xaaab01839b40] buffer underflow st=0 bufi=960 size=24936
[mpeg @ 0xaaab01839b40] buffer underflow st=0 bufi=3001 size=24936
[mpeg @ 0xaaab01839b40] buffer underflow st=0 bufi=5042 size=24936
[mpeg @ 0xaaab01839b40] buffer underflow st=0 bufi=7083 size=24936
[mpeg @ 0xaaab01839b40] buffer underflow st=0 bufi=9124 size=24936
[mpeg @ 0xaaab01839b40] buffer underflow st=0 bufi=11165 size=24936
[mpeg @ 0xaaab01839b40] buffer underflow st=0 bufi=13206 size=24936
[mpeg @ 0xaaab01839b40] buffer underflow st=0 bufi=15247 size=24936
[mpeg @ 0xaaab01839b40] buffer underflow st=0 bufi=17288 size=24936
[mpeg @ 0xaaab01839b40] buffer underflow st=0 bufi=19329 size=24936
[mpeg @ 0xaaab01839b40] buffer underflow st=0 bufi=21370 size=24936
[mpeg @ 0xaaab01839b40] buffer underflow st=0 bufi=23411 size=24936
pts:129600 pts_time:1.44 dts:126000 dts_time:1.4 duration:0 duration_time:0 stream_index:0
[mpeg @ 0xaaab01839b40] buffer underflow st=0 bufi=507 size=929
pts:133200 pts_time:1.48 dts:129600 dts_time:1.44 duration:0 duration_time:0 stream_index:0
pts:136800 pts_time:1.52 dts:133200 dts_time:1.48 duration:0 duration_time:0 stream_index:0
[mpeg @ 0xaaab01839b40] buffer underflow st=0 bufi=276 size=4395
[mpeg @ 0xaaab01839b40] buffer underflow st=0 bufi=2317 size=4395
[mpeg @ 0xaaab01839b40] buffer underflow st=0 bufi=4358 size=4395
pts:140400 pts_time:1.56 dts:136800 dts_time:1.52 duration:0 duration_time:0 stream_index:0
pts:144000 pts_time:1.6 dts:140400 dts_time:1.56 duration:0 duration_time:0 stream_index:0
pts:147600 pts_time:1.64 dts:144000 dts_time:1.6 duration:0 duration_time:0 stream_index:0
[mpeg @ 0xaaab01839b40] buffer underflow st=0 bufi=1457 size=8118
[mpeg @ 0xaaab01839b40] buffer underflow st=0 bufi=3498 size=8118
[mpeg @ 0xaaab01839b40] buffer underflow st=0 bufi=5539 size=8118
[mpeg @ 0xaaab01839b40] buffer underflow st=0 bufi=7580 size=8118
pts:151200 pts_time:1.68 dts:147600 dts_time:1.64 duration:0 duration_time:0 stream_index:0
pts:154800 pts_time:1.72 dts:151200 dts_time:1.68 duration:0 duration_time:0 stream_index:0
[mpeg @ 0xaaab01839b40] buffer underflow st=0 bufi=6 size=710
pts:158400 pts_time:1.76 dts:154800 dts_time:1.72 duration:0 duration_time:0 stream_index:0
[mpeg @ 0xaaab01839b40] buffer underflow st=0 bufi=1328 size=2589
pts:162000 pts_time:1.8 dts:158400 dts_time:1.76 duration:0 duration_time:0 stream_index:0
[mpeg @ 0xaaab01839b40] buffer underflow st=0 bufi=771 size=934
pts:165600 pts_time:1.84 dts:162000 dts_time:1.8 duration:0 duration_time:0 stream_index:0
[mpeg @ 0xaaab01839b40] buffer underflow st=0 bufi=1869 size=3473
pts:169200 pts_time:1.88 dts:165600 dts_time:1.84 duration:0 duration_time:0 stream_index:0
[mpeg @ 0xaaab01839b40] buffer underflow st=0 bufi=428 size=34393
[mpeg @ 0xaaab01839b40] buffer underflow st=0 bufi=2469 size=34393
[mpeg @ 0xaaab01839b40] buffer underflow st=0 bufi=4510 size=34393
[mpeg @ 0xaaab01839b40] buffer underflow st=0 bufi=6551 size=34393
[mpeg @ 0xaaab01839b40] buffer underflow st=0 bufi=8592 size=34393
[mpeg @ 0xaaab01839b40] buffer underflow st=0 bufi=10633 size=34393
[mpeg @ 0xaaab01839b40] buffer underflow st=0 bufi=12674 size=34393
[mpeg @ 0xaaab01839b40] buffer underflow st=0 bufi=14715 size=34393
[mpeg @ 0xaaab01839b40] buffer underflow st=0 bufi=16756 size=34393
[mpeg @ 0xaaab01839b40] buffer underflow st=0 bufi=18797 size=34393
[mpeg @ 0xaaab01839b40] buffer underflow st=0 bufi=20838 size=34393
[mpeg @ 0xaaab01839b40] buffer underflow st=0 bufi=22879 size=34393
[mpeg @ 0xaaab01839b40] buffer underflow st=0 bufi=24920 size=34393
[mpeg @ 0xaaab01839b40] buffer underflow st=0 bufi=26961 size=34393
[mpeg @ 0xaaab01839b40] buffer underflow st=0 bufi=29002 size=34393
[mpeg @ 0xaaab01839b40] buffer underflow st=0 bufi=31043 size=34393
[mpeg @ 0xaaab01839b40] buffer underflow st=0 bufi=33084 size=34393
pts:172800 pts_time:1.92 dts:169200 dts_time:1.88 duration:0 duration_time:0 stream_index:0
[mpeg @ 0xaaab01839b40] buffer underflow st=0 bufi=723 size=1734
pts:176400 pts_time:1.96 dts:172800 dts_time:1.92 duration:0 duration_time:0 stream_index:0
pts:180000 pts_time:2 dts:176400 dts_time:1.96 duration:0 duration_time:0 stream_index:0
pts:183600 pts_time:2.04 dts:180000 dts_time:2 duration:0 duration_time:0 stream_index:0
[mpeg @ 0xaaab01839b40] buffer underflow st=0 bufi=524 size=4528
[mpeg @ 0xaaab01839b40] buffer underflow st=0 bufi=2565 size=4528
pts:187200 pts_time:2.08 dts:183600 dts_time:2.04 duration:0 duration_time:0 stream_index:0
[mpeg @ 0xaaab01839b40] buffer underflow st=0 bufi=69 size=366
pts:190800 pts_time:2.12 dts:187200 dts_time:2.08 duration:0 duration_time:0 stream_index:0
pts:194400 pts_time:2.16 dts:190800 dts_time:2.12 duration:0 duration_time:0 stream_index:0
[mpeg @ 0xaaab01839b40] buffer underflow st=0 bufi=1606 size=2304
pts:198000 pts_time:2.2 dts:194400 dts_time:2.16 duration:0 duration_time:0 stream_index:0
pts:201600 pts_time:2.24 dts:198000 dts_time:2.2 duration:0 duration_time:0 stream_index:0
[mpeg @ 0xaaab01839b40] buffer underflow st=0 bufi=1109 size=1482
pts:205200 pts_time:2.28 dts:201600 dts_time:2.24 duration:0 duration_time:0 stream_index:0
pts:208800 pts_time:2.32 dts:205200 dts_time:2.28 duration:0 duration_time:0 stream_index:0
[mpeg @ 0xaaab01839b40] buffer underflow st=0 bufi=542 size=953
pts:212400 pts_time:2.36 dts:208800 dts_time:2.32 duration:0 duration_time:0 stream_index:0
[mpeg @ 0xaaab01839b40] buffer underflow st=0 bufi=1621 size=41045
[mpeg @ 0xaaab01839b40] buffer underflow st=0 bufi=3662 size=41045
[mpeg @ 0xaaab01839b40] buffer underflow st=0 bufi=5703 size=41045
[mpeg @ 0xaaab01839b40] buffer underflow st=0 bufi=7744 size=41045
[mpeg @ 0xaaab01839b40] buffer underflow st=0 bufi=9785 size=41045
[mpeg @ 0xaaab01839b40] buffer underflow st=0 bufi=11826 size=41045
[mpeg @ 0xaaab01839b40] buffer underflow st=0 bufi=13867 size=41045
[mpeg @ 0xaaab01839b40] buffer underflow st=0 bufi=15908 size=41045
[mpeg @ 0xaaab01839b40] buffer underflow st=0 bufi=17949 size=41045
[mpeg @ 0xaaab01839b40] buffer underflow st=0 bufi=19990 size=41045
[mpeg @ 0xaaab01839b40] buffer underflow st=0 bufi=22031 size=41045
[mpeg @ 0xaaab01839b40] buffer underflow st=0 bufi=24072 size=41045
[mpeg @ 0xaaab01839b40] buffer underflow st=0 bufi=26113 size=41045
[mpeg @ 0xaaab01839b40] buffer underflow st=0 bufi=28154 size=41045
[mpeg @ 0xaaab01839b40] buffer underflow st=0 bufi=30195 size=41045
[mpeg @ 0xaaab01839b40] buffer underflow st=0 bufi=32236 size=41045
[mpeg @ 0xaaab01839b40] buffer underflow st=0 bufi=34277 size=41045
[mpeg @ 0xaaab01839b40] buffer underflow st=0 bufi=36318 size=41045
[mpeg @ 0xaaab01839b40] buffer underflow st=0 bufi=38359 size=41045
[mpeg @ 0xaaab01839b40] buffer underflow st=0 bufi=40400 size=41045
pts:216000 pts_time:2.4 dts:212400 dts_time:2.36 duration:0 duration_time:0 stream_index:0
[mpeg @ 0xaaab01839b40] buffer underflow st=0 bufi=1387 size=5432
[mpeg @ 0xaaab01839b40] buffer underflow st=0 bufi=3428 size=5432
pts:219600 pts_time:2.44 dts:216000 dts_time:2.4 duration:0 duration_time:0 stream_index:0
[mpeg @ 0xaaab01839b40] buffer underflow st=0 bufi=28 size=73
pts:223200 pts_time:2.48 dts:219600 dts_time:2.44 duration:0 duration_time:0 stream_index:0
pts:226800 pts_time:2.52 dts:223200 dts_time:2.48 duration:0 duration_time:0 stream_index:0
pts:230400 pts_time:2.56 dts:226800 dts_time:2.52 duration:0 duration_time:0 stream_index:0
pts:234000 pts_time:2.6 dts:230400 dts_time:2.56 duration:0 duration_time:0 stream_index:0
[mpeg @ 0xaaab01839b40] buffer underflow st=0 bufi=22 size=406
pts:237600 pts_time:2.64 dts:234000 dts_time:2.6 duration:0 duration_time:0 stream_index:0
[mpeg @ 0xaaab01839b40] buffer underflow st=0 bufi=1636 size=8982
[mpeg @ 0xaaab01839b40] buffer underflow st=0 bufi=3677 size=8982
[mpeg @ 0xaaab01839b40] buffer underflow st=0 bufi=5718 size=8982
[mpeg @ 0xaaab01839b40] buffer underflow st=0 bufi=7759 size=8982
pts:241200 pts_time:2.68 dts:237600 dts_time:2.64 duration:0 duration_time:0 stream_index:0
pts:244800 pts_time:2.72 dts:241200 dts_time:2.68 duration:0 duration_time:0 stream_index:0
pts:248400 pts_time:2.76 dts:244800 dts_time:2.72 duration:0 duration_time:0 stream_index:0
pts:252000 pts_time:2.8 dts:248400 dts_time:2.76 duration:0 duration_time:0 stream_index:0
pts:255600 pts_time:2.84 dts:252000 dts_time:2.8 duration:0 duration_time:0 stream_index:0
[mpeg @ 0xaaab01839b40] buffer underflow st=0 bufi=82 size=43369
[mpeg @ 0xaaab01839b40] buffer underflow st=0 bufi=2123 size=43369
[mpeg @ 0xaaab01839b40] buffer underflow st=0 bufi=4164 size=43369
[mpeg @ 0xaaab01839b40] buffer underflow st=0 bufi=6205 size=43369
[mpeg @ 0xaaab01839b40] buffer underflow st=0 bufi=8246 size=43369
[mpeg @ 0xaaab01839b40] buffer underflow st=0 bufi=10287 size=43369
[mpeg @ 0xaaab01839b40] buffer underflow st=0 bufi=12328 size=43369
[mpeg @ 0xaaab01839b40] buffer underflow st=0 bufi=14369 size=43369
[mpeg @ 0xaaab01839b40] buffer underflow st=0 bufi=16410 size=43369
[mpeg @ 0xaaab01839b40] buffer underflow st=0 bufi=18451 size=43369
[mpeg @ 0xaaab01839b40] buffer underflow st=0 bufi=20492 size=43369
[mpeg @ 0xaaab01839b40] buffer underflow st=0 bufi=22533 size=43369
[mpeg @ 0xaaab01839b40] buffer underflow st=0 bufi=24574 size=43369
[mpeg @ 0xaaab01839b40] buffer underflow st=0 bufi=26615 size=43369
[mpeg @ 0xaaab01839b40] buffer underflow st=0 bufi=28656 size=43369
[mpeg @ 0xaaab01839b40] buffer underflow st=0 bufi=30697 size=43369
[mpeg @ 0xaaab01839b40] buffer underflow st=0 bufi=32738 size=43369
[mpeg @ 0xaaab01839b40] buffer underflow st=0 bufi=34779 size=43369
[mpeg @ 0xaaab01839b40] buffer underflow st=0 bufi=36820 size=43369
[mpeg @ 0xaaab01839b40] buffer underflow st=0 bufi=38861 size=43369
[mpeg @ 0xaaab01839b40] buffer underflow st=0 bufi=40902 size=43369
[mpeg @ 0xaaab01839b40] buffer underflow st=0 bufi=42943 size=43369
pts:259200 pts_time:2.88 dts:255600 dts_time:2.84 duration:0 duration_time:0 stream_index:0
[mpeg @ 0xaaab01839b40] buffer underflow st=0 bufi=1606 size=8612
[mpeg @ 0xaaab01839b40] buffer underflow st=0 bufi=3647 size=8612
[mpeg @ 0xaaab01839b40] buffer underflow st=0 bufi=5688 size=8612
[mpeg @ 0xaaab01839b40] buffer underflow st=0 bufi=7729 size=8612
pts:262800 pts_time:2.92 dts:259200 dts_time:2.88 duration:0 duration_time:0 stream_index:0
pts:266400 pts_time:2.96 dts:262800 dts_time:2.92 duration:0 duration_time:0 stream_index:0
pts:270000 pts_time:3 dts:266400 dts_time:2.96 duration:0 duration_time:0 stream_index:0
pts:273600 pts_time:3.04 dts:270000 dts_time:3 duration:0 duration_time:0 stream_index:0
[mpeg @ 0xaaab01839b40] buffer underflow st=0 bufi=577 size=1791
pts:277200 pts_time:3.08 dts:273600 dts_time:3.04 duration:0 duration_time:0 stream_index:0
pts:280800 pts_time:3.12 dts:277200 dts_time:3.08 duration:0 duration_time:0 stream_index:0
[mpeg @ 0xaaab01839b40] buffer underflow st=0 bufi=582 size=1357
pts:284400 pts_time:3.16 dts:280800 dts_time:3.12 duration:0 duration_time:0 stream_index:0
pts:288000 pts_time:3.2 dts:284400 dts_time:3.16 duration:0 duration_time:0 stream_index:0
pts:291600 pts_time:3.24 dts:288000 dts_time:3.2 duration:0 duration_time:0 stream_index:0
[mpeg @ 0xaaab01839b40] buffer underflow st=0 bufi=1021 size=1267
pts:295200 pts_time:3.28 dts:291600 dts_time:3.24 duration:0 duration_time:0 stream_index:0
pts:298800 pts_time:3.32 dts:295200 dts_time:3.28 duration:0 duration_time:0 stream_index:0
[mpeg @ 0xaaab01839b40] buffer underflow st=0 bufi=1666 size=41448
[mpeg @ 0xaaab01839b40] buffer underflow st=0 bufi=3707 size=41448
[mpeg @ 0xaaab01839b40] buffer underflow st=0 bufi=5748 size=41448
[mpeg @ 0xaaab01839b40] buffer underflow st=0 bufi=7789 size=41448
[mpeg @ 0xaaab01839b40] buffer underflow st=0 bufi=9830 size=41448
[mpeg @ 0xaaab01839b40] buffer underflow st=0 bufi=11871 size=41448
[mpeg @ 0xaaab01839b40] buffer underflow st=0 bufi=13912 size=41448
[mpeg @ 0xaaab01839b40] buffer underflow st=0 bufi=15953 size=41448
[mpeg @ 0xaaab01839b40] buffer underflow st=0 bufi=17994 size=41448
[mpeg @ 0xaaab01839b40] buffer underflow st=0 bufi=20035 size=41448
[mpeg @ 0xaaab01839b40] buffer underflow st=0 bufi=22076 size=41448
[mpeg @ 0xaaab01839b40] buffer underflow st=0 bufi=24117 size=41448
[mpeg @ 0xaaab01839b40] buffer underflow st=0 bufi=26158 size=41448
[mpeg @ 0xaaab01839b40] buffer underflow st=0 bufi=28199 size=41448
[mpeg @ 0xaaab01839b40] buffer underflow st=0 bufi=30240 size=41448
[mpeg @ 0xaaab01839b40] buffer underflow st=0 bufi=32281 size=41448
[mpeg @ 0xaaab01839b40] buffer underflow st=0 bufi=34322 size=41448
[mpeg @ 0xaaab01839b40] buffer underflow st=0 bufi=36363 size=41448
[mpeg @ 0xaaab01839b40] buffer underflow st=0 bufi=38404 size=41448
[mpeg @ 0xaaab01839b40] buffer underflow st=0 bufi=40433 size=41448
pts:302400 pts_time:3.36 dts:298800 dts_time:3.32 duration:0 duration_time:0 stream_index:0
[mpeg @ 0xaaab01839b40] buffer underflow st=0 bufi=1017 size=5633
[mpeg @ 0xaaab01839b40] buffer underflow st=0 bufi=3058 size=5633
[mpeg @ 0xaaab01839b40] buffer underflow st=0 bufi=5099 size=5633
pts:306000 pts_time:3.4 dts:302400 dts_time:3.36 duration:0 duration_time:0 stream_index:0
pts:309600 pts_time:3.44 dts:306000 dts_time:3.4 duration:0 duration_time:0 stream_index:0
pts:313200 pts_time:3.48 dts:309600 dts_time:3.44 duration:0 duration_time:0 stream_index:0
pts:316800 pts_time:3.52 dts:313200 dts_time:3.48 duration:0 duration_time:0 stream_index:0
[mpeg @ 0xaaab01839b40] buffer underflow st=0 bufi=805 size=1176
pts:320400 pts_time:3.56 dts:316800 dts_time:3.52 duration:0 duration_time:0 stream_index:0
pts:324000 pts_time:3.6 dts:320400 dts_time:3.56 duration:0 duration_time:0 stream_index:0
pts:327600 pts_time:3.64 dts:324000 dts_time:3.6 duration:0 duration_time:0 stream_index:0
[mpeg @ 0xaaab01839b40] buffer underflow st=0 bufi=904 size=8682
[mpeg @ 0xaaab01839b40] buffer underflow st=0 bufi=2945 size=8682
[mpeg @ 0xaaab01839b40] buffer underflow st=0 bufi=4986 size=8682
[mpeg @ 0xaaab01839b40] buffer underflow st=0 bufi=7027 size=8682
pts:331200 pts_time:3.68 dts:327600 dts_time:3.64 duration:0 duration_time:0 stream_index:0
pts:334800 pts_time:3.72 dts:331200 dts_time:3.68 duration:0 duration_time:0 stream_index:0
pts:338400 pts_time:3.76 dts:334800 dts_time:3.72 duration:0 duration_time:0 stream_index:0
pts:342000 pts_time:3.8 dts:338400 dts_time:3.76 duration:0 duration_time:0 stream_index:0
[mpeg @ 0xaaab01839b40] buffer underflow st=0 bufi=179 size=41472
[mpeg @ 0xaaab01839b40] buffer underflow st=0 bufi=2220 size=41472
[mpeg @ 0xaaab01839b40] buffer underflow st=0 bufi=4261 size=41472
[mpeg @ 0xaaab01839b40] buffer underflow st=0 bufi=6302 size=41472
[mpeg @ 0xaaab01839b40] buffer underflow st=0 bufi=8343 size=41472
[mpeg @ 0xaaab01839b40] buffer underflow st=0 bufi=10384 size=41472
[mpeg @ 0xaaab01839b40] buffer underflow st=0 bufi=12425 size=41472
[mpeg @ 0xaaab01839b40] buffer underflow st=0 bufi=14466 size=41472
[mpeg @ 0xaaab01839b40] buffer underflow st=0 bufi=16507 size=41472
[mpeg @ 0xaaab01839b40] buffer underflow st=0 bufi=18548 size=41472
[mpeg @ 0xaaab01839b40] buffer underflow st=0 bufi=20589 size=41472
[mpeg @ 0xaaab01839b40] buffer underflow st=0 bufi=22630 size=41472
[mpeg @ 0xaaab01839b40] buffer underflow st=0 bufi=24671 size=41472
[mpeg @ 0xaaab01839b40] buffer underflow st=0 bufi=26712 size=41472
[mpeg @ 0xaaab01839b40] buffer underflow st=0 bufi=28753 size=41472
[mpeg @ 0xaaab01839b40] buffer underflow st=0 bufi=30794 size=41472
[mpeg @ 0xaaab01839b40] buffer underflow st=0 bufi=32835 size=41472
[mpeg @ 0xaaab01839b40] buffer underflow st=0 bufi=34876 size=41472
[mpeg @ 0xaaab01839b40] buffer underflow st=0 bufi=36917 size=41472
[mpeg @ 0xaaab01839b40] buffer underflow st=0 bufi=38958 size=41472
[mpeg @ 0xaaab01839b40] buffer underflow st=0 bufi=40999 size=41472
pts:345600 pts_time:3.84 dts:342000 dts_time:3.8 duration:0 duration_time:0 stream_index:0
pts:349200 pts_time:3.88 dts:345600 dts_time:3.84 duration:0 duration_time:0 stream_index:0
[mpeg @ 0xaaab01839b40] buffer underflow st=0 bufi=1432 size=5482
[mpeg @ 0xaaab01839b40] buffer underflow st=0 bufi=3473 size=5482
pts:352800 pts_time:3.92 dts:349200 dts_time:3.88 duration:0 duration_time:0 stream_index:0
[mpeg @ 0xaaab01839b40] buffer underflow st=0 bufi=23 size=309
pts:356400 pts_time:3.96 dts:352800 dts_time:3.92 duration:0 duration_time:0 stream_index:0
pts:360000 pts_time:4 dts:356400 dts_time:3.96 duration:0 duration_time:0 stream_index:0
[mpeg @ 0xaaab01839b40] buffer underflow st=0 bufi=1672 size=23007
[mpeg @ 0xaaab01839b40] buffer underflow st=0 bufi=3713 size=23007
[mpeg @ 0xaaab01839b40] buffer underflow st=0 bufi=5754 size=23007
[mpeg @ 0xaaab01839b40] buffer underflow st=0 bufi=7795 size=23007
[mpeg @ 0xaaab01839b40] buffer underflow st=0 bufi=9836 size=23007
[mpeg @ 0xaaab01839b40] buffer underflow st=0 bufi=11877 size=23007
[mpeg @ 0xaaab01839b40] buffer underflow st=0 bufi=13918 size=23007
[mpeg @ 0xaaab01839b40] buffer underflow st=0 bufi=15959 size=23007
[mpeg @ 0xaaab01839b40] buffer underflow st=0 bufi=18000 size=23007
[mpeg @ 0xaaab01839b40] buffer underflow st=0 bufi=20041 size=23007
[mpeg @ 0xaaab01839b40] buffer underflow st=0 bufi=22082 size=23007
pts:363600 pts_time:4.04 dts:360000 dts_time:4 duration:0 duration_time:0 stream_index:0
[mpeg @ 0xaaab01839b40] buffer underflow st=0 bufi=1107 size=5473
[mpeg @ 0xaaab01839b40] buffer underflow st=0 bufi=3148 size=5473
[mpeg @ 0xaaab01839b40] buffer underflow st=0 bufi=5189 size=5473
pts:367200 pts_time:4.08 dts:363600 dts_time:4.04 duration:0 duration_time:0 stream_index:0
[mpeg @ 0xaaab01839b40] buffer underflow st=0 bufi=1748 size=4520
[mpeg @ 0xaaab01839b40] buffer underflow st=0 bufi=3789 size=4520
pts:370800 pts_time:4.12 dts:367200 dts_time:4.08 duration:0 duration_time:0 stream_index:0
[mpeg @ 0xaaab01839b40] buffer underflow st=0 bufi=1301 size=3343
pts:374400 pts_time:4.16 dts:370800 dts_time:4.12 duration:0 duration_time:0 stream_index:0
[mpeg @ 0xaaab01839b40] buffer underflow st=0 bufi=3342 size=3343
[mpeg @ 0xaaab01839b40] buffer underflow st=0 bufi=2031 size=2540
pts:378000 pts_time:4.2 dts:374400 dts_time:4.16 duration:0 duration_time:0 stream_index:0
[mpeg @ 0xaaab01839b40] buffer underflow st=0 bufi=1496 size=3609
[mpeg @ 0xaaab01839b40] buffer underflow st=0 bufi=3537 size=3609
pts:381600 pts_time:4.24 dts:378000 dts_time:4.2 duration:0 duration_time:0 stream_index:0
[mpeg @ 0xaaab01839b40] buffer underflow st=0 bufi=1960 size=2247
pts:385200 pts_time:4.28 dts:381600 dts_time:4.24 duration:0 duration_time:0 stream_index:0
[mpeg @ 0xaaab01839b40] buffer underflow st=0 bufi=1745 size=12647
[mpeg @ 0xaaab01839b40] buffer underflow st=0 bufi=3786 size=12647
[mpeg @ 0xaaab01839b40] buffer underflow st=0 bufi=5827 size=12647
[mpeg @ 0xaaab01839b40] buffer underflow st=0 bufi=7868 size=12647
[mpeg @ 0xaaab01839b40] buffer underflow st=0 bufi=9909 size=12647
[mpeg @ 0xaaab01839b40] buffer underflow st=0 bufi=11950 size=12647
pts:388800 pts_time:4.32 dts:385200 dts_time:4.28 duration:0 duration_time:0 stream_index:0
[mpeg @ 0xaaab01839b40] buffer underflow st=0 bufi=1335 size=2977
pts:392400 pts_time:4.36 dts:388800 dts_time:4.32 duration:0 duration_time:0 stream_index:0
[mpeg @ 0xaaab01839b40] buffer underflow st=0 bufi=390 size=2836
[mpeg @ 0xaaab01839b40] buffer underflow st=0 bufi=2431 size=2836
pts:396000 pts_time:4.4 dts:392400 dts_time:4.36 duration:0 duration_time:0 stream_index:0
[mpeg @ 0xaaab01839b40] buffer underflow st=0 bufi=1627 size=2154
pts:399600 pts_time:4.44 dts:396000 dts_time:4.4 duration:0 duration_time:0 stream_index:0
[mpeg @ 0xaaab01839b40] buffer underflow st=0 bufi=1505 size=1990
pts:403200 pts_time:4.48 dts:399600 dts_time:4.44 duration:0 duration_time:0 stream_index:0
[mpeg @ 0xaaab01839b40] buffer underflow st=0 bufi=1547 size=1954
pts:406800 pts_time:4.52 dts:403200 dts_time:4.48 duration:0 duration_time:0 stream_index:0
[mpeg @ 0xaaab01839b40] buffer underflow st=0 bufi=1625 size=3414
pts:410400 pts_time:4.56 dts:406800 dts_time:4.52 duration:0 duration_time:0 stream_index:0
[mpeg @ 0xaaab01839b40] buffer underflow st=0 bufi=243 size=2567
[mpeg @ 0xaaab01839b40] buffer underflow st=0 bufi=2284 size=2567
pts:414000 pts_time:4.6 dts:410400 dts_time:4.56 duration:0 duration_time:0 stream_index:0
[mpeg @ 0xaaab01839b40] buffer underflow st=0 bufi=1749 size=2561
pts:417600 pts_time:4.64 dts:414000 dts_time:4.6 duration:0 duration_time:0 stream_index:0
[mpeg @ 0xaaab01839b40] buffer underflow st=0 bufi=1220 size=1940
pts:421200 pts_time:4.68 dts:417600 dts_time:4.64 duration:0 duration_time:0 stream_index:0
[mpeg @ 0xaaab01839b40] buffer underflow st=0 bufi=1312 size=1752
pts:424800 pts_time:4.72 dts:421200 dts_time:4.68 duration:0 duration_time:0 stream_index:0
[mpeg @ 0xaaab01839b40] buffer underflow st=0 bufi=1592 size=2793
pts:428400 pts_time:4.76 dts:424800 dts_time:4.72 duration:0 duration_time:0 stream_index:0
[mpeg @ 0xaaab01839b40] buffer underflow st=0 bufi=831 size=9227
[mpeg @ 0xaaab01839b40] buffer underflow st=0 bufi=2872 size=9227
[mpeg @ 0xaaab01839b40] buffer underflow st=0 bufi=4913 size=9227
[mpeg @ 0xaaab01839b40] buffer underflow st=0 bufi=6954 size=9227
[mpeg @ 0xaaab01839b40] buffer underflow st=0 bufi=8995 size=9227
pts:432000 pts_time:4.8 dts:428400 dts_time:4.76 duration:0 duration_time:0 stream_index:0
pts:435600 pts_time:4.84 dts:432000 dts_time:4.8 duration:0 duration_time:0 stream_index:0
[mpeg @ 0xaaab01839b40] buffer underflow st=0 bufi=128 size=2017
pts:439200 pts_time:4.88 dts:435600 dts_time:4.84 duration:0 duration_time:0 stream_index:0
[mpeg @ 0xaaab01839b40] buffer underflow st=0 bufi=143 size=3156
[mpeg @ 0xaaab01839b40] buffer underflow st=0 bufi=2184 size=3156
pts:442800 pts_time:4.92 dts:439200 dts_time:4.88 duration:0 duration_time:0 stream_index:0
[mpeg @ 0xaaab01839b40] buffer underflow st=0 bufi=1060 size=1535
pts:446400 pts_time:4.96 dts:442800 dts_time:4.92 duration:0 duration_time:0 stream_index:0
[mpeg @ 0xaaab01839b40] buffer underflow st=0 bufi=1557 size=2029
pts:450000 pts_time:5 dts:446400 dts_time:4.96 duration:0 duration_time:0 stream_index:0
[mpeg @ 0xaaab01839b40] buffer underflow st=0 bufi=1560 size=2721
pts:453600 pts_time:5.04 dts:450000 dts_time:5 duration:0 duration_time:0 stream_index:0
[mpeg @ 0xaaab01839b40] buffer underflow st=0 bufi=871 size=2740
pts:457200 pts_time:5.08 dts:453600 dts_time:5.04 duration:0 duration_time:0 stream_index:0
[mpeg @ 0xaaab01839b40] buffer underflow st=0 bufi=163 size=1545
pts:460800 pts_time:5.12 dts:457200 dts_time:5.08 duration:0 duration_time:0 stream_index:0
[mpeg @ 0xaaab01839b40] buffer underflow st=0 bufi=650 size=2402
pts:464400 pts_time:5.16 dts:460800 dts_time:5.12 duration:0 duration_time:0 stream_index:0
[mpeg @ 0xaaab01839b40] buffer underflow st=0 bufi=280 size=3202
[mpeg @ 0xaaab01839b40] buffer underflow st=0 bufi=2321 size=3202
pts:468000 pts_time:5.2 dts:464400 dts_time:5.16 duration:0 duration_time:0 stream_index:0
[mpeg @ 0xaaab01839b40] buffer underflow st=0 bufi=1151 size=2008
pts:471600 pts_time:5.24 dts:468000 dts_time:5.2 duration:0 duration_time:0 stream_index:0
[mpeg @ 0xaaab01839b40] buffer underflow st=0 bufi=1175 size=10575
[mpeg @ 0xaaab01839b40] buffer underflow st=0 bufi=3216 size=10575
[mpeg @ 0xaaab01839b40] buffer underflow st=0 bufi=5257 size=10575
[mpeg @ 0xaaab01839b40] buffer underflow st=0 bufi=7298 size=10575
[mpeg @ 0xaaab01839b40] buffer underflow st=0 bufi=9339 size=10575
pts:475200 pts_time:5.28 dts:471600 dts_time:5.24 duration:0 duration_time:0 stream_index:0
[mpeg @ 0xaaab01839b40] buffer underflow st=0 bufi=796 size=2888
[mpeg @ 0xaaab01839b40] buffer underflow st=0 bufi=2837 size=2888
pts:478800 pts_time:5.32 dts:475200 dts_time:5.28 duration:0 duration_time:0 stream_index:0
[mpeg @ 0xaaab01839b40] buffer underflow st=0 bufi=1981 size=2480
pts:482400 pts_time:5.36 dts:478800 dts_time:5.32 duration:0 duration_time:0 stream_index:0
[mpeg @ 0xaaab01839b40] buffer underflow st=0 bufi=1533 size=3244
pts:486000 pts_time:5.4 dts:482400 dts_time:5.36 duration:0 duration_time:0 stream_index:0
[mpeg @ 0xaaab01839b40] buffer underflow st=0 bufi=321 size=1700
pts:489600 pts_time:5.44 dts:486000 dts_time:5.4 duration:0 duration_time:0 stream_index:0
[mpeg @ 0xaaab01839b40] buffer underflow st=0 bufi=653 size=2088
pts:493200 pts_time:5.48 dts:489600 dts_time:5.44 duration:0 duration_time:0 stream_index:0
[mpeg @ 0xaaab01839b40] buffer underflow st=0 bufi=597 size=3454
[mpeg @ 0xaaab01839b40] buffer underflow st=0 bufi=2638 size=3454
pts:496800 pts_time:5.52 dts:493200 dts_time:5.48 duration:0 duration_time:0 stream_index:0
[mpeg @ 0xaaab01839b40] buffer underflow st=0 bufi=1204 size=2687
pts:500400 pts_time:5.56 dts:496800 dts_time:5.52 duration:0 duration_time:0 stream_index:0
[mpeg @ 0xaaab01839b40] buffer underflow st=0 bufi=549 size=2225
pts:504000 pts_time:5.6 dts:500400 dts_time:5.56 duration:0 duration_time:0 stream_index:0
[mpeg @ 0xaaab01839b40] buffer underflow st=0 bufi=356 size=2547
[mpeg @ 0xaaab01839b40] buffer underflow st=0 bufi=2397 size=2547
pts:507600 pts_time:5.64 dts:504000 dts_time:5.6 duration:0 duration_time:0 stream_index:0
pts:511200 pts_time:5.68 dts:507600 dts_time:5.64 duration:0 duration_time:0 stream_index:0
[mpeg @ 0xaaab01839b40] buffer underflow st=0 bufi=344 size=2599
[mpeg @ 0xaaab01839b40] buffer underflow st=0 bufi=2385 size=2599
pts:514800 pts_time:5.72 dts:511200 dts_time:5.68 duration:0 duration_time:0 stream_index:0
[mpeg @ 0xaaab01839b40] buffer underflow st=0 bufi=1818 size=9166
[mpeg @ 0xaaab01839b40] buffer underflow st=0 bufi=3859 size=9166
[mpeg @ 0xaaab01839b40] buffer underflow st=0 bufi=5900 size=9166
[mpeg @ 0xaaab01839b40] buffer underflow st=0 bufi=7941 size=9166
pts:518400 pts_time:5.76 dts:514800 dts_time:5.72 duration:0 duration_time:0 stream_index:0
[mpeg @ 0xaaab01839b40] buffer underflow st=0 bufi=807 size=1708
pts:522000 pts_time:5.8 dts:518400 dts_time:5.76 duration:0 duration_time:0 stream_index:0
[mpeg @ 0xaaab01839b40] buffer underflow st=0 bufi=1131 size=2043
pts:525600 pts_time:5.84 dts:522000 dts_time:5.8 duration:0 duration_time:0 stream_index:0
[mpeg @ 0xaaab01839b40] buffer underflow st=0 bufi=1120 size=3166
pts:529200 pts_time:5.88 dts:525600 dts_time:5.84 duration:0 duration_time:0 stream_index:0
[mpeg @ 0xaaab01839b40] buffer underflow st=0 bufi=3161 size=3166
pts:532800 pts_time:5.92 dts:529200 dts_time:5.88 duration:0 duration_time:0 stream_index:0
[mpeg @ 0xaaab01839b40] buffer underflow st=0 bufi=416 size=1941
pts:536400 pts_time:5.96 dts:532800 dts_time:5.92 duration:0 duration_time:0 stream_index:0
[mpeg @ 0xaaab01839b40] buffer underflow st=0 bufi=507 size=2722
[mpeg @ 0xaaab01839b40] buffer underflow st=0 bufi=2548 size=2722
pts:540000 pts_time:6 dts:536400 dts_time:5.96 duration:0 duration_time:0 stream_index:0
[mpeg @ 0xaaab01839b40] buffer underflow st=0 bufi=1858 size=2994
pts:543600 pts_time:6.04 dts:540000 dts_time:6 duration:0 duration_time:0 stream_index:0
[mpeg @ 0xaaab01839b40] buffer underflow st=0 bufi=896 size=1636
pts:547200 pts_time:6.08 dts:543600 dts_time:6.04 duration:0 duration_time:0 stream_index:0
[mpeg @ 0xaaab01839b40] buffer underflow st=0 bufi=1292 size=1951
pts:550800 pts_time:6.12 dts:547200 dts_time:6.08 duration:0 duration_time:0 stream_index:0
[mpeg @ 0xaaab01839b40] buffer underflow st=0 bufi=1373 size=2606
pts:554400 pts_time:6.16 dts:550800 dts_time:6.12 duration:0 duration_time:0 stream_index:0
[mpeg @ 0xaaab01839b40] buffer underflow st=0 bufi=799 size=1843
pts:558000 pts_time:6.2 dts:554400 dts_time:6.16 duration:0 duration_time:0 stream_index:0
[mpeg @ 0xaaab01839b40] buffer underflow st=0 bufi=988 size=10190
[mpeg @ 0xaaab01839b40] buffer underflow st=0 bufi=3029 size=10190
[mpeg @ 0xaaab01839b40] buffer underflow st=0 bufi=5070 size=10190
[mpeg @ 0xaaab01839b40] buffer underflow st=0 bufi=7111 size=10190
[mpeg @ 0xaaab01839b40] buffer underflow st=0 bufi=9152 size=10190
pts:561600 pts_time:6.24 dts:558000 dts_time:6.2 duration:0 duration_time:0 stream_index:0
[mpeg @ 0xaaab01839b40] buffer underflow st=0 bufi=994 size=2348
pts:565200 pts_time:6.28 dts:561600 dts_time:6.24 duration:0 duration_time:0 stream_index:0
[mpeg @ 0xaaab01839b40] buffer underflow st=0 bufi=678 size=2198
pts:568800 pts_time:6.32 dts:565200 dts_time:6.28 duration:0 duration_time:0 stream_index:0
[mpeg @ 0xaaab01839b40] buffer underflow st=0 bufi=512 size=2851
[mpeg @ 0xaaab01839b40] buffer underflow st=0 bufi=2553 size=2851
pts:572400 pts_time:6.36 dts:568800 dts_time:6.32 duration:0 duration_time:0 stream_index:0
pts:576000 pts_time:6.4 dts:572400 dts_time:6.36 duration:0 duration_time:0 stream_index:0
[mpeg @ 0xaaab01839b40] buffer underflow st=0 bufi=194 size=1753
pts:579600 pts_time:6.44 dts:576000 dts_time:6.4 duration:0 duration_time:0 stream_index:0
[mpeg @ 0xaaab01839b40] buffer underflow st=0 bufi=473 size=3012
[mpeg @ 0xaaab01839b40] buffer underflow st=0 bufi=2514 size=3012
pts:583200 pts_time:6.48 dts:579600 dts_time:6.44 duration:0 duration_time:0 stream_index:0
[mpeg @ 0xaaab01839b40] buffer underflow st=0 bufi=1534 size=2676
pts:586800 pts_time:6.52 dts:583200 dts_time:6.48 duration:0 duration_time:0 stream_index:0
[mpeg @ 0xaaab01839b40] buffer underflow st=0 bufi=890 size=1582
pts:590400 pts_time:6.56 dts:586800 dts_time:6.52 duration:0 duration_time:0 stream_index:0
[mpeg @ 0xaaab01839b40] buffer underflow st=0 bufi=1340 size=1961
pts:594000 pts_time:6.6 dts:590400 dts_time:6.56 duration:0 duration_time:0 stream_index:0
[mpeg @ 0xaaab01839b40] buffer underflow st=0 bufi=1411 size=1940
pts:597600 pts_time:6.64 dts:594000 dts_time:6.6 duration:0 duration_time:0 stream_index:0
[mpeg @ 0xaaab01839b40] buffer underflow st=0 bufi=1503 size=2641
pts:601200 pts_time:6.68 dts:597600 dts_time:6.64 duration:0 duration_time:0 stream_index:0
[mpeg @ 0xaaab01839b40] buffer underflow st=0 bufi=894 size=9162
[mpeg @ 0xaaab01839b40] buffer underflow st=0 bufi=2935 size=9162
[mpeg @ 0xaaab01839b40] buffer underflow st=0 bufi=4976 size=9162
[mpeg @ 0xaaab01839b40] buffer underflow st=0 bufi=7017 size=9162
[mpeg @ 0xaaab01839b40] buffer underflow st=0 bufi=9058 size=9162
pts:604800 pts_time:6.72 dts:601200 dts_time:6.68 duration:0 duration_time:0 stream_index:0
pts:608400 pts_time:6.76 dts:604800 dts_time:6.72 duration:0 duration_time:0 stream_index:0
[mpeg @ 0xaaab01839b40] buffer underflow st=0 bufi=251 size=2015
pts:612000 pts_time:6.8 dts:608400 dts_time:6.76 duration:0 duration_time:0 stream_index:0
[mpeg @ 0xaaab01839b40] buffer underflow st=0 bufi=268 size=3146
[mpeg @ 0xaaab01839b40] buffer underflow st=0 bufi=2309 size=3146
pts:615600 pts_time:6.84 dts:612000 dts_time:6.8 duration:0 duration_time:0 stream_index:0
[mpeg @ 0xaaab01839b40] buffer underflow st=0 bufi=1195 size=1532
pts:619200 pts_time:6.88 dts:615600 dts_time:6.84 duration:0 duration_time:0 stream_index:0
[mpeg @ 0xaaab01839b40] buffer underflow st=0 bufi=1695 size=1969
pts:622800 pts_time:6.92 dts:619200 dts_time:6.88 duration:0 duration_time:0 stream_index:0
[mpeg @ 0xaaab01839b40] buffer underflow st=0 bufi=1758 size=2704
pts:626400 pts_time:6.96 dts:622800 dts_time:6.92 duration:0 duration_time:0 stream_index:0
[mpeg @ 0xaaab01839b40] buffer underflow st=0 bufi=1086 size=2710
pts:630000 pts_time:7 dts:626400 dts_time:6.96 duration:0 duration_time:0 stream_index:0
[mpeg @ 0xaaab01839b40] buffer underflow st=0 bufi=408 size=1518
pts:633600 pts_time:7.04 dts:630000 dts_time:7 duration:0 duration_time:0 stream_index:0
[mpeg @ 0xaaab01839b40] buffer underflow st=0 bufi=910 size=2101
pts:637200 pts_time:7.08 dts:633600 dts_time:7.04 duration:0 duration_time:0 stream_index:0
[mpeg @ 0xaaab01839b40] buffer underflow st=0 bufi=841 size=2704
pts:640800 pts_time:7.12 dts:637200 dts_time:7.08 duration:0 duration_time:0 stream_index:0
[mpeg @ 0xaaab01839b40] buffer underflow st=0 bufi=169 size=1733
pts:644400 pts_time:7.16 dts:640800 dts_time:7.12 duration:0 duration_time:0 stream_index:0
[mpeg @ 0xaaab01839b40] buffer underflow st=0 bufi=468 size=10565
[mpeg @ 0xaaab01839b40] buffer underflow st=0 bufi=2509 size=10565
[mpeg @ 0xaaab01839b40] buffer underflow st=0 bufi=4550 size=10565
[mpeg @ 0xaaab01839b40] buffer underflow st=0 bufi=6591 size=10565
[mpeg @ 0xaaab01839b40] buffer underflow st=0 bufi=8632 size=10565
pts:648000 pts_time:7.2 dts:644400 dts_time:7.16 duration:0 duration_time:0 stream_index:0
[mpeg @ 0xaaab01839b40] buffer underflow st=0 bufi=99 size=2924
[mpeg @ 0xaaab01839b40] buffer underflow st=0 bufi=2140 size=2924
pts:651600 pts_time:7.24 dts:648000 dts_time:7.2 duration:0 duration_time:0 stream_index:0
[mpeg @ 0xaaab01839b40] buffer underflow st=0 bufi=1248 size=2502
pts:655200 pts_time:7.28 dts:651600 dts_time:7.24 duration:0 duration_time:0 stream_index:0
[mpeg @ 0xaaab01839b40] buffer underflow st=0 bufi=778 size=3301
[mpeg @ 0xaaab01839b40] buffer underflow st=0 bufi=2819 size=3301
pts:658800 pts_time:7.32 dts:655200 dts_time:7.28 duration:0 duration_time:0 stream_index:0
[mpeg @ 0xaaab01839b40] buffer underflow st=0 bufi=1550 size=1764
pts:662400 pts_time:7.36 dts:658800 dts_time:7.32 duration:0 duration_time:0 stream_index:0
[mpeg @ 0xaaab01839b40] buffer underflow st=0 bufi=1818 size=2015
pts:666000 pts_time:7.4 dts:662400 dts_time:7.36 duration:0 duration_time:0 stream_index:0
[mpeg @ 0xaaab01839b40] buffer underflow st=0 bufi=1835 size=3379
pts:669600 pts_time:7.44 dts:666000 dts_time:7.4 duration:0 duration_time:0 stream_index:0
[mpeg @ 0xaaab01839b40] buffer underflow st=0 bufi=488 size=2993
[mpeg @ 0xaaab01839b40] buffer underflow st=0 bufi=2529 size=2993
pts:673200 pts_time:7.48 dts:669600 dts_time:7.44 duration:0 duration_time:0 stream_index:0
[mpeg @ 0xaaab01839b40] buffer underflow st=0 bufi=1568 size=2095
pts:676800 pts_time:7.52 dts:673200 dts_time:7.48 duration:0 duration_time:0 stream_index:0
[mpeg @ 0xaaab01839b40] buffer underflow st=0 bufi=1505 size=2714
pts:680400 pts_time:7.56 dts:676800 dts_time:7.52 duration:0 duration_time:0 stream_index:0
[mpeg @ 0xaaab01839b40] buffer underflow st=0 bufi=823 size=2757
pts:684000 pts_time:7.6 dts:680400 dts_time:7.56 duration:0 duration_time:0 stream_index:0
[mpeg @ 0xaaab01839b40] buffer underflow st=0 bufi=98 size=2611
[mpeg @ 0xaaab01839b40] buffer underflow st=0 bufi=2139 size=2611
pts:687600 pts_time:7.64 dts:684000 dts_time:7.6 duration:0 duration_time:0 stream_index:0
[mpeg @ 0xaaab01839b40] buffer underflow st=0 bufi=1560 size=9231
[mpeg @ 0xaaab01839b40] buffer underflow st=0 bufi=3601 size=9231
[mpeg @ 0xaaab01839b40] buffer underflow st=0 bufi=5642 size=9231
[mpeg @ 0xaaab01839b40] buffer underflow st=0 bufi=7683 size=9231
pts:691200 pts_time:7.68 dts:687600 dts_time:7.64 duration:0 duration_time:0 stream_index:0
[mpeg @ 0xaaab01839b40] buffer underflow st=0 bufi=484 size=1256
pts:694800 pts_time:7.72 dts:691200 dts_time:7.68 duration:0 duration_time:0 stream_index:0
[mpeg @ 0xaaab01839b40] buffer underflow st=0 bufi=1260 size=1546
pts:698400 pts_time:7.76 dts:694800 dts_time:7.72 duration:0 duration_time:0 stream_index:0
[mpeg @ 0xaaab01839b40] buffer underflow st=0 bufi=1746 size=2748
pts:702000 pts_time:7.8 dts:698400 dts_time:7.76 duration:0 duration_time:0 stream_index:0
[mpeg @ 0xaaab01839b40] buffer underflow st=0 bufi=1030 size=1355
pts:705600 pts_time:7.84 dts:702000 dts_time:7.8 duration:0 duration_time:0 stream_index:0
pts:709200 pts_time:7.88 dts:705600 dts_time:7.84 duration:0 duration_time:0 stream_index:0
[mpeg @ 0xaaab01839b40] buffer underflow st=0 bufi=188 size=2458
[mpeg @ 0xaaab01839b40] buffer underflow st=0 bufi=2229 size=2458
pts:712800 pts_time:7.92 dts:709200 dts_time:7.88 duration:0 duration_time:0 stream_index:0
[mpeg @ 0xaaab01839b40] buffer underflow st=0 bufi=1803 size=2321
pts:716400 pts_time:7.96 dts:712800 dts_time:7.92 duration:0 duration_time:0 stream_index:0
pts:720000 pts_time:8 dts:716400 dts_time:7.96 duration:0 duration_time:0 stream_index:0
[mpeg @ 0xaaab01839b40] buffer underflow st=0 bufi=191 size=2267
[mpeg @ 0xaaab01839b40] buffer underflow st=0 bufi=2232 size=2267
pts:723600 pts_time:8.04 dts:720000 dts_time:8 duration:0 duration_time:0 stream_index:0
[mpeg @ 0xaaab01839b40] buffer underflow st=0 bufi=1997 size=2690
pts:727200 pts_time:8.08 dts:723600 dts_time:8.04 duration:0 duration_time:0 stream_index:0
[mpeg @ 0xaaab01839b40] buffer underflow st=0 bufi=1339 size=2006
pts:730800 pts_time:8.12 dts:727200 dts_time:8.08 duration:0 duration_time:0 stream_index:0
[mpeg @ 0xaaab01839b40] buffer underflow st=0 bufi=1365 size=10277
[mpeg @ 0xaaab01839b40] buffer underflow st=0 bufi=3406 size=10277
[mpeg @ 0xaaab01839b40] buffer underflow st=0 bufi=5447 size=10277
[mpeg @ 0xaaab01839b40] buffer underflow st=0 bufi=7488 size=10277
[mpeg @ 0xaaab01839b40] buffer underflow st=0 bufi=9529 size=10277
pts:734400 pts_time:8.16 dts:730800 dts_time:8.12 duration:0 duration_time:0 stream_index:0
[mpeg @ 0xaaab01839b40] buffer underflow st=0 bufi=1284 size=2360
pts:738000 pts_time:8.2 dts:734400 dts_time:8.16 duration:0 duration_time:0 stream_index:0
[mpeg @ 0xaaab01839b40] buffer underflow st=0 bufi=956 size=2210
pts:741600 pts_time:8.24 dts:738000 dts_time:8.2 duration:0 duration_time:0 stream_index:0
[mpeg @ 0xaaab01839b40] buffer underflow st=0 bufi=778 size=2848
[mpeg @ 0xaaab01839b40] buffer underflow st=0 bufi=2819 size=2848
pts:745200 pts_time:8.28 dts:741600 dts_time:8.24 duration:0 duration_time:0 stream_index:0
pts:748800 pts_time:8.32 dts:745200 dts_time:8.28 duration:0 duration_time:0 stream_index:0
[mpeg @ 0xaaab01839b40] buffer underflow st=0 bufi=395 size=1777
pts:752400 pts_time:8.36 dts:748800 dts_time:8.32 duration:0 duration_time:0 stream_index:0
[mpeg @ 0xaaab01839b40] buffer underflow st=0 bufi=650 size=2992
[mpeg @ 0xaaab01839b40] buffer underflow st=0 bufi=2691 size=2992
pts:756000 pts_time:8.4 dts:752400 dts_time:8.36 duration:0 duration_time:0 stream_index:0
[mpeg @ 0xaaab01839b40] buffer underflow st=0 bufi=1731 size=2078
pts:759600 pts_time:8.44 dts:756000 dts_time:8.4 duration:0 duration_time:0 stream_index:0
pts:763200 pts_time:8.48 dts:759600 dts_time:8.44 duration:0 duration_time:0 stream_index:0
[mpeg @ 0xaaab01839b40] buffer underflow st=0 bufi=16 size=2395
[mpeg @ 0xaaab01839b40] buffer underflow st=0 bufi=2045 size=2395
pts:766800 pts_time:8.52 dts:763200 dts_time:8.48 duration:0 duration_time:0 stream_index:0
[mpeg @ 0xaaab01839b40] buffer underflow st=0 bufi=1682 size=1812
pts:770400 pts_time:8.56 dts:766800 dts_time:8.52 duration:0 duration_time:0 stream_index:0
[mpeg @ 0xaaab01839b40] buffer underflow st=0 bufi=1902 size=2087
pts:774000 pts_time:8.6 dts:770400 dts_time:8.56 duration:0 duration_time:0 stream_index:0
[mpeg @ 0xaaab01839b40] buffer underflow st=0 bufi=1847 size=9212
[mpeg @ 0xaaab01839b40] buffer underflow st=0 bufi=3888 size=9212
[mpeg @ 0xaaab01839b40] buffer underflow st=0 bufi=5929 size=9212
[mpeg @ 0xaaab01839b40] buffer underflow st=0 bufi=7970 size=9212
pts:777600 pts_time:8.64 dts:774000 dts_time:8.6 duration:0 duration_time:0 stream_index:0
[mpeg @ 0xaaab01839b40] buffer underflow st=0 bufi=790 size=1670
pts:781200 pts_time:8.68 dts:777600 dts_time:8.64 duration:0 duration_time:0 stream_index:0
[mpeg @ 0xaaab01839b40] buffer underflow st=0 bufi=1152 size=2010
pts:784800 pts_time:8.72 dts:781200 dts_time:8.68 duration:0 duration_time:0 stream_index:0
[mpeg @ 0xaaab01839b40] buffer underflow st=0 bufi=1174 size=3155
pts:788400 pts_time:8.76 dts:784800 dts_time:8.72 duration:0 duration_time:0 stream_index:0
[mpeg @ 0xaaab01839b40] buffer underflow st=0 bufi=51 size=1506
pts:792000 pts_time:8.8 dts:788400 dts_time:8.76 duration:0 duration_time:0 stream_index:0
[mpeg @ 0xaaab01839b40] buffer underflow st=0 bufi=577 size=2012
pts:795600 pts_time:8.84 dts:792000 dts_time:8.8 duration:0 duration_time:0 stream_index:0
[mpeg @ 0xaaab01839b40] buffer underflow st=0 bufi=597 size=2738
[mpeg @ 0xaaab01839b40] buffer underflow st=0 bufi=2638 size=2738
pts:799200 pts_time:8.88 dts:795600 dts_time:8.84 duration:0 duration_time:0 stream_index:0
[mpeg @ 0xaaab01839b40] buffer underflow st=0 bufi=1932 size=2739
pts:802800 pts_time:8.92 dts:799200 dts_time:8.88 duration:0 duration_time:0 stream_index:0
[mpeg @ 0xaaab01839b40] buffer underflow st=0 bufi=1225 size=1576
pts:806400 pts_time:8.96 dts:802800 dts_time:8.92 duration:0 duration_time:0 stream_index:0
[mpeg @ 0xaaab01839b40] buffer underflow st=0 bufi=1681 size=2004
pts:810000 pts_time:9 dts:806400 dts_time:8.96 duration:0 duration_time:0 stream_index:0
[mpeg @ 0xaaab01839b40] buffer underflow st=0 bufi=1709 size=2699
pts:813600 pts_time:9.04 dts:810000 dts_time:9 duration:0 duration_time:0 stream_index:0
[mpeg @ 0xaaab01839b40] buffer underflow st=0 bufi=1042 size=1683
pts:817200 pts_time:9.08 dts:813600 dts_time:9.04 duration:0 duration_time:0 stream_index:0
[mpeg @ 0xaaab01839b40] buffer underflow st=0 bufi=1391 size=10190
[mpeg @ 0xaaab01839b40] buffer underflow st=0 bufi=3432 size=10190
[mpeg @ 0xaaab01839b40] buffer underflow st=0 bufi=5473 size=10190
[mpeg @ 0xaaab01839b40] buffer underflow st=0 bufi=7514 size=10190
[mpeg @ 0xaaab01839b40] buffer underflow st=0 bufi=9555 size=10190
pts:820800 pts_time:9.12 dts:817200 dts_time:9.08 duration:0 duration_time:0 stream_index:0
[mpeg @ 0xaaab01839b40] buffer underflow st=0 bufi=1397 size=2374
pts:824400 pts_time:9.16 dts:820800 dts_time:9.12 duration:0 duration_time:0 stream_index:0
[mpeg @ 0xaaab01839b40] buffer underflow st=0 bufi=1055 size=2210
pts:828000 pts_time:9.2 dts:824400 dts_time:9.16 duration:0 duration_time:0 stream_index:0
[mpeg @ 0xaaab01839b40] buffer underflow st=0 bufi=877 size=3191
[mpeg @ 0xaaab01839b40] buffer underflow st=0 bufi=2918 size=3191
pts:831600 pts_time:9.24 dts:828000 dts_time:9.2 duration:0 duration_time:0 stream_index:0
pts:835200 pts_time:9.28 dts:831600 dts_time:9.24 duration:0 duration_time:0 stream_index:0
[mpeg @ 0xaaab01839b40] buffer underflow st=0 bufi=85 size=2060
pts:838800 pts_time:9.32 dts:835200 dts_time:9.28 duration:0 duration_time:0 stream_index:0
[mpeg @ 0xaaab01839b40] buffer underflow st=0 bufi=57 size=3537
[mpeg @ 0xaaab01839b40] buffer underflow st=0 bufi=2098 size=3537
pts:842400 pts_time:9.36 dts:838800 dts_time:9.32 duration:0 duration_time:0 stream_index:0
[mpeg @ 0xaaab01839b40] buffer underflow st=0 bufi=593 size=2912
[mpeg @ 0xaaab01839b40] buffer underflow st=0 bufi=2634 size=2912
pts:846000 pts_time:9.4 dts:842400 dts_time:9.36 duration:0 duration_time:0 stream_index:0
[mpeg @ 0xaaab01839b40] buffer underflow st=0 bufi=1754 size=2237
pts:849600 pts_time:9.44 dts:846000 dts_time:9.4 duration:0 duration_time:0 stream_index:0
[mpeg @ 0xaaab01839b40] buffer underflow st=0 bufi=1549 size=2773
pts:853200 pts_time:9.48 dts:849600 dts_time:9.44 duration:0 duration_time:0 stream_index:0
[mpeg @ 0xaaab01839b40] buffer underflow st=0 bufi=808 size=2786
pts:856800 pts_time:9.52 dts:853200 dts_time:9.48 duration:0 duration_time:0 stream_index:0
[mpeg @ 0xaaab01839b40] buffer underflow st=0 bufi=54 size=2497
[mpeg @ 0xaaab01839b40] buffer underflow st=0 bufi=2095 size=2497
pts:860400 pts_time:9.56 dts:856800 dts_time:9.52 duration:0 duration_time:0 stream_index:0
[mpeg @ 0xaaab01839b40] buffer underflow st=0 bufi=1630 size=9210
[mpeg @ 0xaaab01839b40] buffer underflow st=0 bufi=3671 size=9210
[mpeg @ 0xaaab01839b40] buffer underflow st=0 bufi=5712 size=9210
[mpeg @ 0xaaab01839b40] buffer underflow st=0 bufi=7753 size=9210
pts:864000 pts_time:9.6 dts:860400 dts_time:9.56 duration:0 duration_time:0 stream_index:0
[mpeg @ 0xaaab01839b40] buffer underflow st=0 bufi=575 size=1985
pts:867600 pts_time:9.64 dts:864000 dts_time:9.6 duration:0 duration_time:0 stream_index:0
[mpeg @ 0xaaab01839b40] buffer underflow st=0 bufi=622 size=2557
pts:871200 pts_time:9.68 dts:867600 dts_time:9.64 duration:0 duration_time:0 stream_index:0
[mpeg @ 0xaaab01839b40] buffer underflow st=0 bufi=97 size=3428
[mpeg @ 0xaaab01839b40] buffer underflow st=0 bufi=2138 size=3428
pts:874800 pts_time:9.72 dts:871200 dts_time:9.68 duration:0 duration_time:0 stream_index:0
[mpeg @ 0xaaab01839b40] buffer underflow st=0 bufi=742 size=1590
pts:878400 pts_time:9.76 dts:874800 dts_time:9.72 duration:0 duration_time:0 stream_index:0
[mpeg @ 0xaaab01839b40] buffer underflow st=0 bufi=1184 size=1921
pts:882000 pts_time:9.8 dts:878400 dts_time:9.76 duration:0 duration_time:0 stream_index:0
[mpeg @ 0xaaab01839b40] buffer underflow st=0 bufi=1295 size=2857
pts:885600 pts_time:9.84 dts:882000 dts_time:9.8 duration:0 duration_time:0 stream_index:0
[mpeg @ 0xaaab01839b40] buffer underflow st=0 bufi=470 size=2736
[mpeg @ 0xaaab01839b40] buffer underflow st=0 bufi=2511 size=2736
pts:889200 pts_time:9.88 dts:885600 dts_time:9.84 duration:0 duration_time:0 stream_index:0
pts:892800 pts_time:9.92 dts:889200 dts_time:9.88 duration:0 duration_time:0 stream_index:0
[mpeg @ 0xaaab01839b40] buffer underflow st=0 bufi=302 size=1788
[mpeg @ 0xaaab01839b40] buffer underflow st=0 bufi=534 size=2168
pts:896400 pts_time:9.96 dts:892800 dts_time:9.92 duration:0 duration_time:0 stream_index:0
pts:900000 pts_time:10 dts:896400 dts_time:9.96 duration:0 duration_time:0 stream_index:0
